<?xml version="1.0" encoding="UTF-8" standalone="yes"?>
<!DOCTYPE svg PUBLIC "-//W3C//DTD SVG 1.1//EN" "http://www.w3.org/Graphics/SVG/1.1/DTD/svg11.dtd">

<svg width="419" height="95" viewBox="0 0 419 95" xmlns="http://www.w3.org/2000/svg" xmlns:xlink="http://www.w3.org/1999/xlink" version="1.1" baseProfile="full">
    <g transform="scale(1,-1) translate(0,-95)">
        <path d="M 47.123493 93.346985 L 232.978863 93.346985 C 257.899880 93.346985 278.102356 73.144509 278.102356 48.223492 L 278.102356 48.123493 C 278.102356 23.202476 257.899880 3.000000 232.978863 3.000000 L 47.123493 3.000000 C 22.202476 3.000000 2.000000 23.202476 2.000000 48.123493 L 2.000000 48.223492 C 2.000000 73.144509 22.202476 93.346985 47.123493 93.346985 Z" transform="scale(1.000000,1.000000) translate(0.000000,-1.000000)" opacity="1.000000"></path>
        <path d="M 2.823147 42.237913 L 11.250204 42.237913 Q 15.377742 42.237913 19.046664 40.833404 Q 22.715587 39.428894 25.467279 36.820520 Q 28.218971 34.212145 29.824125 30.485895 Q 31.429278 26.759646 31.429278 22.173492 Q 31.429278 18.791204 30.254077 15.236935 Q 29.078875 11.682667 26.441837 8.758994 Q 23.804798 5.835321 19.591270 3.972196 Q 15.377742 2.109071 9.301088 2.109071 L 2.823147 2.109071 Z M 5.173550 39.944837 L 5.173550 4.459475 L 10.160992 4.459475 Q 14.919126 4.459475 18.473395 5.978638 Q 22.027664 7.497802 24.378068 9.962859 Q 26.728471 12.427917 27.903673 15.609560 Q 29.078875 18.791204 29.078875 22.173492 Q 29.078875 26.243704 27.674365 29.540001 Q 26.269856 32.836299 23.833462 35.158039 Q 21.397068 37.479779 18.158097 38.712308 Q 14.919126 39.944837 11.250204 39.944837 Z M 42.436046 23.320031 L 48.398046 23.320031 Q 51.379045 23.320031 53.356824 24.122608 Q 55.334603 24.925184 56.509805 26.186377 Q 57.685006 27.447569 58.143622 28.909405 Q 58.602237 30.371242 58.602237 31.747088 Q 58.602237 33.352241 57.828324 34.842741 Q 57.054410 36.333241 55.678564 37.479779 Q 54.302718 38.626318 52.439593 39.285577 Q 50.576469 39.944837 48.455373 39.944837 L 42.436046 39.944837 Z M 40.085643 2.109071 L 40.085643 42.237913 L 48.684680 42.237913 Q 50.461815 42.237913 52.582911 41.664644 Q 54.704007 41.091375 56.567131 39.830183 Q 58.430256 38.568991 59.691448 36.562549 Q 60.952641 34.556107 60.952641 31.747088 Q 60.952641 26.816973 57.828324 23.893300 Q 54.704007 20.969627 48.799334 20.969627 L 42.436046 20.969627 L 42.436046 2.109071 Z" transform="scale(1.000000,1.000000) translate(205.000000,25.000000)" fill="#ffffff" opacity="1.000000"></path>
        <path d="M 167.051182 47.039472 L 163.167253 45.324008 L 163.008218 36.746666 L 162.397172 29.620901 L 161.334113 23.946690 L 159.819039 19.724008 L 157.479466 15.610589 L 154.813452 12.045633 L 151.820991 9.029137 L 148.502082 6.561099 L 144.856722 4.641518 L 140.884906 3.270391 L 136.586632 2.447717 L 131.961896 2.173492 L 126.083664 2.408542 L 120.703494 3.113691 L 115.821381 4.288943 L 111.437322 5.934298 L 107.551311 8.049758 L 104.163347 10.635326 L 101.273424 13.691003 L 98.881539 17.216791 L 97.676178 19.639478 L 96.604747 22.420918 L 94.863677 29.060077 L 93.658323 37.134294 L 92.988682 46.643596 L 95.399396 50.734317 L 93.164459 52.235354 L 90.611452 53.307518 L 87.740364 53.950814 L 84.551182 54.165245 L 81.362000 53.950814 L 78.490911 53.307518 L 75.937904 52.235354 L 73.702968 50.734317 L 76.113682 46.643596 L 75.444041 37.134294 L 74.238687 29.060077 L 72.497616 22.420918 L 71.426186 19.639478 L 70.220825 17.216791 L 67.828939 13.691003 L 64.939017 10.635326 L 61.551052 8.049758 L 57.665042 5.934298 L 53.280982 4.288943 L 48.398869 3.113691 L 43.018699 2.408542 L 37.140468 2.173492 L 32.515729 2.447717 L 28.217453 3.270391 L 24.245636 4.641518 L 20.600275 6.561099 L 17.281367 9.029137 L 14.288908 12.045633 L 11.622895 15.610589 L 9.283325 19.724008 L 7.768252 23.946690 L 6.705194 29.620901 L 6.094148 36.746666 L 5.935110 45.324008 L 2.051182 47.039472 L 2.051182 58.651843 L 13.016608 61.942573 L 22.877084 64.293088 L 31.632645 65.703392 L 39.283325 66.173492 L 46.599185 65.761125 L 54.350284 64.524017 L 62.536653 62.462162 L 71.158325 59.575554 L 74.707438 61.018856 L 78.122612 62.049784 L 81.403856 62.668339 L 84.551182 62.874523 L 87.698508 62.668339 L 90.979752 62.049784 L 94.394925 61.018856 L 97.944039 59.575554 L 106.565710 62.462162 L 114.752080 64.524017 L 122.503179 65.761125 L 129.819039 66.173492 L 137.469719 65.703392 L 146.225281 64.293088 L 156.085757 61.942573 L 167.051182 58.651843 Z M 120.444039 56.540503 L 115.856984 56.474526 L 112.006539 55.748750 L 108.758770 54.660088 L 107.051182 54.033286 L 105.075734 52.515763 L 103.435110 50.338441 L 102.731985 48.416794 L 102.229753 45.554947 L 101.827968 37.010606 L 102.037230 33.159052 L 102.665018 29.389986 L 103.711335 25.703395 L 105.176182 22.099266 L 107.687340 33.464221 L 109.118700 38.268332 L 110.667253 42.486894 L 112.483661 46.309583 L 114.718590 49.926071 L 117.372046 53.336373 L 120.444039 56.540503 Z M 32.452968 56.540503 L 27.865913 56.474526 L 24.015468 55.748750 L 20.767694 54.660088 L 19.060110 54.033286 L 17.084663 52.515763 L 15.444039 50.338441 L 14.740912 48.416794 L 14.238680 45.554947 L 13.836896 37.010606 L 14.046158 33.159052 L 14.673945 29.389986 L 15.720261 25.703395 L 17.185110 22.099266 L 19.696270 33.464221 L 21.127629 38.268332 L 22.676182 42.486894 L 24.492589 46.309583 L 26.727517 49.926071 L 29.380973 53.336373 L 32.452968 56.540503 Z" transform="scale(1.000000,1.000000) translate(28.000000,13.000000)" fill="#ffffff" opacity="1.000000"></path>
        <path d="M 22.309558 18.326147 L 22.309558 20.619224 L 29.876711 20.619224 Q 31.596519 20.619224 32.284442 19.988627 Q 32.972365 19.358031 32.972365 17.695551 L 32.972365 5.828879 Q 30.679288 4.510360 28.070913 3.736447 Q 25.462539 2.962533 22.538866 2.962533 Q 18.296674 2.962533 14.570424 4.567687 Q 10.844175 6.172840 8.063819 8.953196 Q 5.283464 11.733551 3.678310 15.459801 Q 2.073156 19.186051 2.073156 23.428243 Q 2.073156 27.670434 3.678310 31.425347 Q 5.283464 35.180261 8.063819 37.960616 Q 10.844175 40.740971 14.570424 42.374789 Q 18.296674 44.008606 22.538866 44.008606 Q 25.462539 44.008606 28.070913 43.263356 Q 30.679288 42.518106 33.029692 41.142260 Q 32.685730 40.683645 32.370432 40.167702 Q 32.055134 39.651760 31.711173 39.193145 Q 29.704730 40.397010 27.382990 41.056270 Q 25.061250 41.715529 22.538866 41.715529 Q 18.812616 41.715529 15.516318 40.253693 Q 12.220021 38.791856 9.754963 36.298135 Q 7.289906 33.804414 5.885396 30.479453 Q 4.480887 27.154492 4.480887 23.370916 Q 4.480887 19.644666 5.885396 16.348368 Q 7.289906 13.052071 9.754963 10.587013 Q 12.220021 8.121956 15.458992 6.688783 Q 18.697962 5.255610 22.424212 5.255610 Q 26.781058 5.255610 30.564634 7.204725 L 30.564634 14.427917 L 30.564634 16.835647 Q 30.564634 17.523570 30.278000 17.924858 Q 29.991365 18.326147 29.016807 18.326147 Z M 42.488633 3.421148 L 42.488633 43.549990 L 66.279304 43.549990 L 66.279304 41.256914 L 44.839037 41.256914 L 44.839037 24.804089 L 64.043554 24.804089 L 64.043554 22.511012 L 44.839037 22.511012 L 44.839037 5.714225 L 67.081880 5.714225 L 67.081880 3.421148 Z M 93.796224 38.447895 Q 93.681570 38.849183 93.538253 39.250472 Q 93.394935 39.651760 93.280281 40.053048 Q 91.789782 35.696203 89.926657 31.454011 Q 88.063532 27.211819 86.229071 22.912300 L 100.388819 22.912300 Q 98.726339 26.867858 97.092521 30.708761 Q 95.458704 34.549664 93.796224 38.447895 Z M 111.051626 3.421148 L 108.643895 3.421148 Q 106.809434 7.720667 105.003636 12.020186 Q 103.197838 16.319705 101.363377 20.619224 L 85.254513 20.619224 Q 83.420052 16.319705 81.614254 12.020186 Q 79.808456 7.720667 77.973995 3.421148 L 75.508937 3.421148 Q 79.980437 13.969301 84.394609 24.402800 Q 88.808782 34.836299 93.280281 45.384452 Q 97.751781 34.836299 102.165954 24.402800 Q 106.580126 13.969301 111.051626 3.421148 Z M 121.083836 24.632108 L 127.045836 24.632108 Q 130.026835 24.632108 132.004614 25.434685 Q 133.982393 26.237261 135.157594 27.498454 Q 136.332796 28.759646 136.791411 30.221482 Q 137.250027 31.683319 137.250027 33.059165 Q 137.250027 34.664318 136.476113 36.154818 Q 135.702200 37.645318 134.326354 38.791856 Q 132.950508 39.938395 131.087383 40.597654 Q 129.224258 41.256914 127.103162 41.256914 L 121.083836 41.256914 Z M 118.733433 3.421148 L 118.733433 43.549990 L 127.332470 43.549990 Q 129.109605 43.549990 131.230701 42.976721 Q 133.351796 42.403452 135.214921 41.142260 Q 137.078046 39.881068 138.339238 37.874626 Q 139.600430 35.868184 139.600430 33.059165 Q 139.600430 28.931627 137.393344 26.208598 Q 135.186258 23.485569 131.001393 22.625666 Q 133.294470 17.752878 135.558883 12.994744 Q 137.823296 8.236609 140.059046 3.421148 L 137.479334 3.421148 Q 135.243585 8.236609 133.007835 12.937417 Q 130.772085 17.638224 128.536335 22.396358 Q 128.020393 22.339031 127.533114 22.310368 Q 127.045836 22.281704 126.529893 22.281704 L 121.083836 22.281704 L 121.083836 3.421148 Z" transform="scale(1.000000,1.000000) translate(276.000000,23.000000)" fill="#000000" opacity="1.000000"></path>
    </g>
</svg>